<svg width="80" height="80" viewBox="0 0 80 80" fill="none" xmlns="http://www.w3.org/2000/svg">
<path d="M79.9771 27.76V52.3086C79.9771 53.3486 79.1314 54.1943 78.0914 54.1943H53.6228C50.08 54.1943 47.8171 56.4914 41.5885 56.4914C35.36 56.4914 25.4628 49.4286 21.3943 39.7486C20.5257 37.6457 22.5828 36.0686 25.0743 39.9429C27.5657 43.8171 36.3657 52.6171 43.4285 47.3943C43.4285 47.3943 40.1485 47.5543 38.5371 47.4057C36.9257 47.2571 32.1943 46.3886 31.76 43.9429C31.3257 41.4857 34.6857 43.6343 35.7943 43.4171C36.9143 43.1886 41.28 40.3657 45.0971 40.5486C48.9257 40.7314 51.7714 44.6629 55.2114 44.1829C58.6514 43.7029 60.0457 42.1143 59.8514 40.6971C59.6571 39.28 52.16 22.3543 38.32 22.3543C29.8971 22.2629 26.0343 24.7886 26.0343 24.7886V1.88571C26.0343 0.845714 26.88 0 27.92 0H52.08C53.12 0 53.9657 0.845714 53.9657 1.88571V25.8743H78.08C79.1314 25.8743 79.9771 26.72 79.9771 27.76Z" fill="#7BB243"/>
<path d="M54.9257 40.0571C52.4343 36.1828 43.6343 27.3828 36.5714 32.6057C36.5714 32.6057 39.8514 32.4457 41.4628 32.5828C43.0743 32.7314 47.8057 33.6 48.24 36.0457C48.6743 38.5028 45.3143 36.3543 44.2057 36.5828C43.0857 36.8114 38.72 39.6343 34.9028 39.4514C31.0743 39.2686 28.2285 35.3371 24.7885 35.8286C21.36 36.3086 19.9543 37.8857 20.1485 39.3143C20.3428 40.7314 27.84 57.6571 41.68 57.6571C50.1028 57.76 53.9657 55.2228 53.9657 55.2228V78.1143C53.9657 79.1543 53.12 80 52.08 80H27.9085C26.8685 80 26.0228 79.1543 26.0228 78.1143V54.1257H1.90854C0.868541 54.1257 0.0228271 53.28 0.0228271 52.24V27.6914C0.0228271 26.6514 0.868541 25.8057 1.90854 25.8057H3.3714H26.3771C29.92 25.8057 32.1828 23.52 38.4114 23.52C44.64 23.52 54.5485 30.5828 58.6057 40.2628C59.4743 42.3543 57.4171 43.9314 54.9257 40.0571Z" fill="#1E417C"/>
<path d="M53.9542 55.2228V77.6571C44.7428 75.2457 34.6285 71.1543 26.0228 64.2628V54.1257H16.1828C9.4971 45.2686 5.62281 34.9943 3.38281 25.8057H26.3885C29.9314 25.8057 32.1942 23.52 38.4228 23.52C44.6514 23.52 54.56 30.5828 58.6171 40.2628C59.4857 42.3543 57.4285 43.9428 54.9371 40.0686C52.4457 36.1943 43.6457 27.3943 36.5828 32.6171C36.5828 32.6171 39.8628 32.4571 41.4742 32.5943C43.0857 32.7428 47.8171 33.6114 48.2514 36.0571C48.6857 38.5143 45.3257 36.3657 44.2171 36.5943C43.0971 36.8228 38.7314 39.6457 34.9142 39.4628C31.0857 39.28 28.24 35.3486 24.8 35.84C21.3714 36.32 19.9657 37.8971 20.16 39.3257C20.3542 40.7428 27.8514 57.6686 41.6914 57.6686C50.0914 57.76 53.9542 55.2228 53.9542 55.2228Z" fill="#1C3664"/>
<path d="M78.0914 54.1943H53.6228C50.08 54.1943 47.8171 56.4914 41.5885 56.4914C35.36 56.4914 25.4628 49.4286 21.3943 39.7486C20.5257 37.6457 22.5828 36.0686 25.0743 39.9428C27.5657 43.8171 36.3657 52.6171 43.4285 47.3943C43.4285 47.3943 40.1485 47.5543 38.5371 47.4057C36.9257 47.2571 32.1943 46.3886 31.76 43.9428C31.3257 41.4857 34.6857 43.6343 35.7943 43.4171C36.9143 43.1886 41.28 40.3657 45.0971 40.5486C48.9257 40.7314 51.7714 44.6628 55.2114 44.1828C58.64 43.7028 60.0457 42.1143 59.8514 40.6971C59.6571 39.28 52.16 22.3543 38.32 22.3543C29.8971 22.2628 26.0343 24.7886 26.0343 24.7886V3.07428C35.0857 5.27999 45.1885 9.06285 53.9657 15.5657V25.8857H64.6628C71.6343 34.6286 75.7028 44.9028 78.0914 54.1943Z" fill="#7BB243"/>
</svg>
